<svg width="24" height="24" viewBox="0 0 24 24" fill="none" xmlns="http://www.w3.org/2000/svg">
<path d="M16.7998 7.0439C16.7998 4.4039 14.6518 2.2439 11.9998 2.2439C9.3478 2.2439 7.1998 4.4039 7.1998 7.0439C7.1998 9.6959 9.3478 11.8439 11.9998 11.8439C14.6518 11.8439 16.7998 9.6959 16.7998 7.0439ZM3.8878 12.7919C3.34138 13.1059 2.86223 13.5246 2.47778 14.0239C2.09332 14.5233 1.8111 15.0936 1.64726 15.7021C1.48342 16.3107 1.44118 16.9456 1.52295 17.5705C1.60472 18.1954 1.80889 18.798 2.1238 19.3439C2.76052 20.448 3.80967 21.2541 5.04058 21.5849C6.27148 21.9157 7.58337 21.7441 8.6878 21.1079C9.23387 20.792 9.71236 20.3716 10.0959 19.8707C10.4795 19.3698 10.7607 18.7983 10.9234 18.1888C11.0861 17.5792 11.1271 16.9436 11.0441 16.3182C10.9612 15.6928 10.7558 15.0899 10.4398 14.5439C9.1198 12.2519 6.1798 11.4719 3.8878 12.7919ZM15.3118 21.1079C17.6158 22.4279 20.5438 21.6479 21.8758 19.3559C23.1958 17.0519 22.4158 14.1239 20.1118 12.7919C17.8198 11.4719 14.8798 12.2519 13.5598 14.5439C13.2438 15.0899 13.0384 15.6928 12.9555 16.3182C12.8725 16.9436 12.9135 17.5792 13.0762 18.1888C13.2389 18.7983 13.5201 19.3698 13.9037 19.8707C14.2872 20.3716 14.7657 20.792 15.3118 21.1079Z" fill="#212121"/>
</svg>
