<svg width="24" height="24" viewBox="0 0 24 24" fill="none" xmlns="http://www.w3.org/2000/svg">
<path d="M4.41896 5.90407C5.33551 4.99276 6.57644 4.48273 7.86894 4.4861C9.16143 4.48948 10.3997 5.00598 11.3115 5.92207L11.9925 6.60157L12.663 5.92957C13.1171 5.47756 13.6559 5.11947 14.2485 4.87574C14.8411 4.63201 15.4759 4.50742 16.1167 4.50909C16.7575 4.51077 17.3916 4.63866 17.9829 4.88548C18.5743 5.1323 19.1112 5.4932 19.563 5.94757C20.4788 6.85909 20.9953 8.0969 20.9989 9.38903C21.0026 10.6812 20.4931 11.9219 19.5825 12.8386L12.558 19.8586C12.4173 19.9992 12.2266 20.0782 12.0277 20.0782C11.8288 20.0782 11.6381 19.9992 11.4975 19.8586L4.43696 12.7951C3.52088 11.8833 3.00437 10.645 3.00099 9.35254C2.99762 8.06005 3.50765 6.81912 4.41896 5.90257V5.90407ZM12.0285 18.2671L18.519 11.7796C19.1495 11.1447 19.5021 10.2855 19.4992 9.39071C19.4964 8.49597 19.1384 7.63895 18.504 7.00807C18.1914 6.69271 17.8198 6.44207 17.4103 6.27047C17.0008 6.09888 16.5614 6.00969 16.1174 6.00802C15.6734 6.00635 15.2335 6.09222 14.8227 6.26073C14.4119 6.42924 14.0384 6.67708 13.7235 6.99007L13.3485 7.36807C13.3278 7.39557 13.3052 7.42163 13.281 7.44607L11.5605 9.16507L14.031 11.6356C14.1716 11.7762 14.2505 11.9669 14.2505 12.1658C14.2505 12.3647 14.1716 12.5554 14.031 12.6961L11.781 14.9461C11.6403 15.0869 11.4495 15.1661 11.2505 15.1662C11.0515 15.1664 10.8605 15.0874 10.7197 14.9468C10.5789 14.8062 10.4997 14.6154 10.4995 14.4163C10.4994 14.2173 10.5783 14.0264 10.719 13.8856L12.4395 12.1651L9.96896 9.69607C9.82836 9.55542 9.74937 9.36469 9.74937 9.16582C9.74937 8.96694 9.82836 8.77621 9.96896 8.63557L10.9365 7.66807L10.251 6.98257C9.62047 6.34769 8.76368 5.98915 7.86894 5.98578C6.97419 5.9824 6.11472 6.33446 5.47946 6.96457C4.84936 7.59983 4.49729 8.4593 4.50067 9.35404C4.50405 10.2488 4.86258 11.1056 5.49746 11.7361L12.0285 18.2671Z" fill="#212121"/>
</svg>
