<svg width="24" height="24" viewBox="0 0 24 24" fill="none" xmlns="http://www.w3.org/2000/svg">
<path d="M23 4V6H20V9H18V6H15V4H18V1H20V4H23ZM14.5 11C14.898 10.9999 15.2796 10.8417 15.5609 10.5602C15.8422 10.2787 16.0001 9.89696 16 9.499C15.9999 9.10104 15.8417 8.71944 15.5602 8.43813C15.2787 8.15683 14.897 7.99887 14.499 7.999C14.302 7.99907 14.1068 8.03794 13.9248 8.11341C13.7428 8.18888 13.5774 8.29946 13.4381 8.43884C13.2988 8.57822 13.1884 8.74367 13.113 8.92575C13.0377 9.10782 12.9989 9.30295 12.999 9.5C12.9991 9.69705 13.0379 9.89215 13.1134 10.0742C13.1889 10.2562 13.2995 10.4216 13.4388 10.5609C13.5782 10.7002 13.7437 10.8106 13.9257 10.886C14.1078 10.9613 14.303 11.0001 14.5 11ZM18 14.234L17.487 13.664C17.2994 13.4552 17.07 13.2881 16.8136 13.1738C16.5573 13.0595 16.2797 13.0004 15.999 13.0004C15.7183 13.0004 15.4407 13.0595 15.1844 13.1738C14.928 13.2881 14.6986 13.4552 14.511 13.664L13.855 14.395L9 9L6 12.333V6H13V4H6C5.46957 4 4.96086 4.21071 4.58579 4.58579C4.21071 4.96086 4 5.46957 4 6V18C4 18.5304 4.21071 19.0391 4.58579 19.4142C4.96086 19.7893 5.46957 20 6 20H18C18.5304 20 19.0391 19.7893 19.4142 19.4142C19.7893 19.0391 20 18.5304 20 18V11H18V14.234Z" fill="#212121"/>
</svg>
