<svg width="24" height="24" viewBox="0 0 24 24" fill="none" xmlns="http://www.w3.org/2000/svg">
<path d="M9.5 2C11.109 1.99994 12.6754 2.51712 13.968 3.47521C15.2607 4.4333 16.2111 5.78155 16.679 7.321C17.9183 7.69776 19.0389 8.38907 19.9316 9.32758C20.8244 10.2661 21.4588 11.4198 21.7732 12.6764C22.0876 13.933 22.0712 15.2495 21.7256 16.4979C21.38 17.7462 20.7169 18.8838 19.8011 19.7997C18.8852 20.7157 17.7477 21.3789 16.4994 21.7246C15.2511 22.0704 13.9345 22.0869 12.6779 21.7727C11.4213 21.4584 10.2675 20.8241 9.32893 19.9314C8.39032 19.0388 7.69889 17.9183 7.322 16.679C5.59938 16.1581 4.12148 15.0352 3.15802 13.5152C2.19456 11.9952 1.80978 10.1794 2.07391 8.39924C2.33804 6.61908 3.23347 4.99324 4.59677 3.81845C5.96008 2.64366 7.70035 1.99825 9.5 2ZM16.998 9.599L17 9.5C17.0002 11.4719 16.2237 13.3646 14.8388 14.7683C13.4538 16.1719 11.5717 16.9737 9.6 17C9.99457 17.7727 10.5663 18.441 11.2686 18.9505C11.9708 19.4599 12.7836 19.796 13.6405 19.9313C14.4975 20.0666 15.3743 19.9973 16.1993 19.7289C17.0243 19.4606 17.7742 19.0009 18.3876 18.3874C19.001 17.7739 19.4606 17.024 19.7288 16.1989C19.997 15.3739 20.0663 14.4971 19.9309 13.6401C19.7954 12.7832 19.4592 11.9705 18.9497 11.2683C18.4401 10.5661 17.7717 9.99447 16.999 9.6L16.998 9.599ZM9.5 4C8.26434 3.99956 7.06453 4.41523 6.09398 5.18001C5.12342 5.94478 4.43867 7.0141 4.15011 8.2156C3.86155 9.41709 3.98599 10.6808 4.50336 11.8029C5.02074 12.925 5.90091 13.8402 7.002 14.401L7 14.5C6.99983 12.5281 7.77626 10.6354 9.16123 9.23175C10.5462 7.82806 12.4283 7.0263 14.4 7C13.9394 6.09667 13.2379 5.33834 12.3731 4.80888C11.5084 4.27942 10.514 3.99948 9.5 4Z" fill="#212121"/>
</svg>
