<svg width="24" height="24" viewBox="0 0 24 24" fill="none" xmlns="http://www.w3.org/2000/svg">
<g clip-path="url(#clip0_1232_28578)">
<path d="M8 17C7.45 17 6.97933 16.8043 6.588 16.413C6.196 16.021 6 15.55 6 15V9C6 8.45 6.196 7.979 6.588 7.587C6.97933 7.19567 7.45 7 8 7H9L10 6H14L15 7H16C16.55 7 17.021 7.19567 17.413 7.587C17.8043 7.979 18 8.45 18 9V15C18 15.55 17.8043 16.021 17.413 16.413C17.021 16.8043 16.55 17 16 17H8ZM8 15H16V9H8V15ZM12 14C12.55 14 13.021 13.804 13.413 13.412C13.8043 13.0207 14 12.55 14 12C14 11.45 13.8043 10.979 13.413 10.587C13.021 10.1957 12.55 10 12 10C11.45 10 10.9793 10.1957 10.588 10.587C10.196 10.979 10 11.45 10 12C10 12.55 10.196 13.0207 10.588 13.412C10.9793 13.804 11.45 14 12 14ZM8.55 0.5C9.11667 0.316667 9.68733 0.187333 10.262 0.112C10.8373 0.0373333 11.4167 0 12 0C13.5667 0 15.046 0.279 16.438 0.837C17.8293 1.39567 19.0627 2.17067 20.138 3.162C21.2127 4.154 22.0917 5.32067 22.775 6.662C23.4583 8.004 23.8667 9.45 24 11H22C21.8833 9.8 21.5667 8.679 21.05 7.637C20.5333 6.59567 19.8707 5.675 19.062 4.875C18.254 4.075 17.325 3.429 16.275 2.937C15.225 2.44567 14.1 2.15 12.9 2.05L14.45 3.6L13.05 5L8.55 0.5ZM15.45 23.5C14.8833 23.6833 14.3127 23.8123 13.738 23.887C13.1627 23.9623 12.5833 24 12 24C10.4333 24 8.954 23.721 7.562 23.163C6.17067 22.6043 4.93767 21.829 3.863 20.837C2.78767 19.8457 1.90833 18.679 1.225 17.337C0.541667 15.9957 0.133333 14.55 0 13H2C2.13333 14.2 2.45433 15.321 2.963 16.363C3.471 17.4043 4.12933 18.325 4.938 19.125C5.746 19.925 6.675 20.5707 7.725 21.062C8.775 21.554 9.9 21.85 11.1 21.95L9.55 20.4L10.95 19L15.45 23.5Z" fill="#212121"/>
</g>
<defs>
<clipPath id="clip0_1232_28578">
<rect width="24" height="24" fill="white"/>
</clipPath>
</defs>
</svg>
