<svg width="24" height="24" viewBox="0 0 24 24" fill="none" xmlns="http://www.w3.org/2000/svg">
<path d="M3 6.25C3 5.38805 3.34241 4.5614 3.9519 3.9519C4.5614 3.34241 5.38805 3 6.25 3H10C10.2652 3 10.5196 3.10536 10.7071 3.29289C10.8946 3.48043 11 3.73478 11 4C11 4.26522 10.8946 4.51957 10.7071 4.70711C10.5196 4.89464 10.2652 5 10 5H6.25C5.56 5 5 5.56 5 6.25V10C5 10.2652 4.89464 10.5196 4.70711 10.7071C4.51957 10.8946 4.26522 11 4 11C3.73478 11 3.48043 10.8946 3.29289 10.7071C3.10536 10.5196 3 10.2652 3 10V6.25ZM13 4C13 3.73478 13.1054 3.48043 13.2929 3.29289C13.4804 3.10536 13.7348 3 14 3H17.75C18.612 3 19.4386 3.34241 20.0481 3.9519C20.6576 4.5614 21 5.38805 21 6.25V10C21 10.2652 20.8946 10.5196 20.7071 10.7071C20.5196 10.8946 20.2652 11 20 11C19.7348 11 19.4804 10.8946 19.2929 10.7071C19.1054 10.5196 19 10.2652 19 10V6.25C19 5.56 18.44 5 17.75 5H14C13.7348 5 13.4804 4.89464 13.2929 4.70711C13.1054 4.51957 13 4.26522 13 4ZM4 13C4.26522 13 4.51957 13.1054 4.70711 13.2929C4.89464 13.4804 5 13.7348 5 14V17.586L9.525 13.061C9.85001 12.736 10.2359 12.4781 10.6605 12.3022C11.0852 12.1263 11.5403 12.0357 12 12.0357C12.4597 12.0357 12.9148 12.1263 13.3395 12.3022C13.7641 12.4781 14.15 12.736 14.475 13.061L19 17.586V14C19 13.7348 19.1054 13.4804 19.2929 13.2929C19.4804 13.1054 19.7348 13 20 13C20.2652 13 20.5196 13.1054 20.7071 13.2929C20.8946 13.4804 21 13.7348 21 14V17.75C21 18.612 20.6576 19.4386 20.0481 20.0481C19.4386 20.6576 18.612 21 17.75 21H14C13.7348 21 13.4804 20.8946 13.2929 20.7071C13.1054 20.5196 13 20.2652 13 20C13 19.7348 13.1054 19.4804 13.2929 19.2929C13.4804 19.1054 13.7348 19 14 19H17.586L13.061 14.475C12.9217 14.3356 12.7563 14.225 12.5742 14.1496C12.3922 14.0742 12.1971 14.0353 12 14.0353C11.8029 14.0353 11.6078 14.0742 11.4258 14.1496C11.2437 14.225 11.0783 14.3356 10.939 14.475L6.414 19H10C10.2652 19 10.5196 19.1054 10.7071 19.2929C10.8946 19.4804 11 19.7348 11 20C11 20.2652 10.8946 20.5196 10.7071 20.7071C10.5196 20.8946 10.2652 21 10 21H6.25C5.38805 21 4.5614 20.6576 3.9519 20.0481C3.34241 19.4386 3 18.612 3 17.75V14C3 13.7348 3.10536 13.4804 3.29289 13.2929C3.48043 13.1054 3.73478 13 4 13ZM17.5 8.75C17.5 9.34674 17.2629 9.91903 16.841 10.341C16.419 10.7629 15.8467 11 15.25 11C14.6533 11 14.081 10.7629 13.659 10.341C13.2371 9.91903 13 9.34674 13 8.75C13 8.15326 13.2371 7.58097 13.659 7.15901C14.081 6.73705 14.6533 6.5 15.25 6.5C15.8467 6.5 16.419 6.73705 16.841 7.15901C17.2629 7.58097 17.5 8.15326 17.5 8.75Z" fill="#212121"/>
</svg>
