<svg width="24" height="24" viewBox="0 0 24 24" fill="none" xmlns="http://www.w3.org/2000/svg">
<path d="M19 4H5C4.46957 4 3.96086 4.21071 3.58579 4.58579C3.21071 4.96086 3 5.46957 3 6V18C3 18.5304 3.21071 19.0391 3.58579 19.4142C3.96086 19.7893 4.46957 20 5 20H19C20.1 20 21 19.1 21 18V6C21 4.9 20.1 4 19 4ZM11 11H9.5V10.5H7.5V13.5H9.5V13H11V14C11 14.55 10.55 15 10 15H7C6.45 15 6 14.55 6 14V10C6 9.45 6.45 9 7 9H10C10.55 9 11 9.45 11 10V11ZM18 11H16.5V10.5H14.5V13.5H16.5V13H18V14C18 14.55 17.55 15 17 15H14C13.45 15 13 14.55 13 14V10C13 9.45 13.45 9 14 9H17C17.55 9 18 9.45 18 10V11Z" fill="#212121"/>
</svg>
