<svg width="24" height="24" viewBox="0 0 24 24" fill="none" xmlns="http://www.w3.org/2000/svg">
<path d="M12 2.25C9.41414 2.25 6.93419 3.27723 5.10571 5.10571C3.27723 6.93419 2.25 9.41414 2.25 12C2.25 14.5859 3.27723 17.0658 5.10571 18.8943C6.93419 20.7228 9.41414 21.75 12 21.75C12.9726 21.7527 13.9399 21.6073 14.8688 21.3188C14.988 21.2879 15.0956 21.2227 15.1781 21.1313L21.1313 15.1781C21.2207 15.094 21.2856 14.987 21.3188 14.8688C21.6073 13.9399 21.7527 12.9726 21.75 12C21.745 9.41566 20.7162 6.93859 18.8888 5.11118C17.0614 3.28378 14.5843 2.25496 12 2.25ZM15.375 9C15.5975 9 15.815 9.06598 16 9.1896C16.185 9.31321 16.3292 9.48891 16.4144 9.69448C16.4995 9.90005 16.5218 10.1262 16.4784 10.3445C16.435 10.5627 16.3278 10.7632 16.1705 10.9205C16.0132 11.0778 15.8127 11.185 15.5945 11.2284C15.3762 11.2718 15.1501 11.2495 14.9445 11.1644C14.7389 11.0792 14.5632 10.935 14.4396 10.75C14.316 10.565 14.25 10.3475 14.25 10.125C14.25 9.82663 14.3685 9.54048 14.5795 9.32951C14.7905 9.11853 15.0766 9 15.375 9ZM8.625 9C8.8475 9 9.06501 9.06598 9.25002 9.1896C9.43502 9.31321 9.57922 9.48891 9.66437 9.69448C9.74951 9.90005 9.77179 10.1262 9.72838 10.3445C9.68498 10.5627 9.57783 10.7632 9.4205 10.9205C9.26316 11.0778 9.06271 11.185 8.84448 11.2284C8.62625 11.2718 8.40005 11.2495 8.19448 11.1644C7.98891 11.0792 7.81321 10.935 7.6896 10.75C7.56598 10.565 7.5 10.3475 7.5 10.125C7.5 9.82663 7.61853 9.54048 7.8295 9.32951C8.04048 9.11853 8.32663 9 8.625 9ZM16.5469 14.625C16.0861 15.4232 15.4234 16.0861 14.6252 16.5469C13.8271 17.0078 12.9216 17.2504 12 17.2504C11.0784 17.2504 10.1729 17.0078 9.37479 16.5469C8.57664 16.0861 7.91388 15.4232 7.45313 14.625C7.39443 14.5398 7.35398 14.4435 7.33431 14.3419C7.31465 14.2404 7.3162 14.1359 7.33887 14.035C7.36154 13.9341 7.40483 13.8389 7.46603 13.7556C7.52723 13.6722 7.60501 13.6024 7.69449 13.5505C7.78397 13.4986 7.8832 13.4658 7.98597 13.4541C8.08873 13.4425 8.1928 13.4522 8.29163 13.4826C8.39047 13.5131 8.48193 13.5637 8.56027 13.6312C8.63862 13.6988 8.70215 13.7817 8.74688 13.875C9.07718 14.4453 9.55159 14.9187 10.1226 15.2478C10.6935 15.577 11.341 15.7502 12 15.7502C12.659 15.7502 13.3065 15.577 13.8774 15.2478C14.4484 14.9187 14.9228 14.4453 15.2531 13.875C15.3603 13.7196 15.5221 13.6103 15.7063 13.5689C15.8905 13.5275 16.0835 13.5571 16.2468 13.6518C16.4101 13.7465 16.5317 13.8993 16.5873 14.0797C16.643 14.2601 16.6285 14.4548 16.5469 14.625Z" fill="#212121"/>
</svg>
