<svg width="24" height="29" viewBox="0 0 24 29" fill="none" xmlns="http://www.w3.org/2000/svg">
<g filter="url(#filter0_d_1232_35483)">
<path d="M6 21C5.73478 21 5.48043 20.8947 5.29289 20.7071C5.10536 20.5196 5 20.2652 5 20V5.00002C5 4.73481 5.10536 4.48045 5.29289 4.29292C5.48043 4.10538 5.73478 4.00002 6 4.00002H12.38C12.5664 3.99873 12.7494 4.04954 12.9084 4.14672C13.0674 4.2439 13.1961 4.38359 13.28 4.55002L14 6.00002H19C19.2652 6.00002 19.5196 6.10538 19.7071 6.29292C19.8946 6.48045 20 6.73481 20 7.00002V15C20 15.2652 19.8946 15.5196 19.7071 15.7071C19.5196 15.8947 19.2652 16 19 16H13.61C13.4253 15.9995 13.2444 15.9478 13.0873 15.8507C12.9302 15.7536 12.8031 15.6149 12.72 15.45L12 14H7V20C7 20.2652 6.89464 20.5196 6.70711 20.7071C6.51957 20.8947 6.26522 21 6 21ZM7 6.00002V12H13L14 14H18V8.00002H13L12 6.00002H7Z" fill="#212121"/>
</g>
<defs>
<filter id="filter0_d_1232_35483" x="-4" y="0" width="32" height="32" filterUnits="userSpaceOnUse" color-interpolation-filters="sRGB">
<feFlood flood-opacity="0" result="BackgroundImageFix"/>
<feColorMatrix in="SourceAlpha" type="matrix" values="0 0 0 0 0 0 0 0 0 0 0 0 0 0 0 0 0 0 127 0" result="hardAlpha"/>
<feOffset dy="4"/>
<feGaussianBlur stdDeviation="2"/>
<feComposite in2="hardAlpha" operator="out"/>
<feColorMatrix type="matrix" values="0 0 0 0 0 0 0 0 0 0 0 0 0 0 0 0 0 0 0.25 0"/>
<feBlend mode="normal" in2="BackgroundImageFix" result="effect1_dropShadow_1232_35483"/>
<feBlend mode="normal" in="SourceGraphic" in2="effect1_dropShadow_1232_35483" result="shape"/>
</filter>
</defs>
</svg>
