<svg width="24" height="24" viewBox="0 0 24 24" fill="none" xmlns="http://www.w3.org/2000/svg">
<path d="M22.125 7.00791H16.2188C16.1156 7.00791 16.0312 7.09229 16.0312 7.19541V16.711C16.0312 16.8142 16.1156 16.8985 16.2188 16.8985H17.6063C17.7094 16.8985 17.7938 16.8142 17.7938 16.711V12.8884H21.7359C21.8391 12.8884 21.9234 12.804 21.9234 12.7009V11.6017C21.9234 11.4985 21.8391 11.4142 21.7359 11.4142H17.7938V8.53604H22.125C22.2281 8.53604 22.3125 8.45166 22.3125 8.34854V7.19541C22.3125 7.09229 22.2281 7.00791 22.125 7.00791ZM13.7812 7.03135H12.4688C12.3656 7.03135 12.2812 7.11572 12.2812 7.21885V16.7345C12.2812 16.8376 12.3656 16.922 12.4688 16.922H13.7812C13.8844 16.922 13.9688 16.8376 13.9688 16.7345V7.21885C13.9688 7.11572 13.8844 7.03135 13.7812 7.03135ZM10.5938 11.7399H6.80859C6.70547 11.7399 6.62109 11.8243 6.62109 11.9274V12.9517C6.62109 13.0548 6.70547 13.1392 6.80859 13.1392H9.03281L9.02578 13.3478C8.99766 14.7259 7.95703 15.6563 6.42656 15.6563C4.64063 15.6563 3.52266 14.2571 3.52266 11.9837C3.52266 9.73838 4.61953 8.34619 6.37031 8.34619C7.65469 8.34619 8.55234 8.97666 8.91328 10.1134H10.6992C10.3805 8.06963 8.68359 6.75244 6.37031 6.75244C3.51562 6.7501 1.6875 8.79385 1.6875 11.9978C1.6875 15.2392 3.49453 17.2501 6.39844 17.2501C9.07266 17.2501 10.7812 15.5931 10.7812 12.9938V11.9274C10.7812 11.8243 10.6969 11.7399 10.5938 11.7399Z" fill="#212121"/>
</svg>
