<svg width="24" height="24" viewBox="0 0 24 24" fill="none" xmlns="http://www.w3.org/2000/svg">
<g clip-path="url(#clip0_1232_28602)">
<path d="M8.14666 4.77198C8.05397 4.57968 7.90891 4.41744 7.72815 4.3039C7.54738 4.19036 7.33825 4.13013 7.12478 4.13013C6.91131 4.13013 6.70218 4.19036 6.52142 4.3039C6.34065 4.41744 6.19559 4.57968 6.10291 4.77198L0.102906 17.522C-0.0239006 17.793 -0.037852 18.1033 0.0641209 18.3846C0.166094 18.6659 0.375638 18.8952 0.646656 19.022C0.917674 19.1488 1.22797 19.1627 1.50927 19.0608C1.79057 18.9588 2.01985 18.7492 2.14666 18.4782L3.59978 15.3751H10.6498L12.1029 18.4782C12.194 18.6722 12.3385 18.8361 12.5195 18.9507C12.7006 19.0653 12.9105 19.1258 13.1248 19.1251C13.2895 19.1234 13.4521 19.0883 13.6029 19.022C13.8728 18.8939 14.0813 18.6646 14.1831 18.3837C14.2849 18.1029 14.2718 17.7932 14.1467 17.522L8.14666 4.77198ZM4.65916 13.1251L7.12478 7.89385L9.59041 13.1251H4.65916ZM19.1248 8.52198C18.2244 8.5176 17.3443 8.78916 16.6029 9.3001C16.358 9.47167 16.1913 9.73349 16.1394 10.028C16.0875 10.3225 16.1548 10.6255 16.3263 10.8704C16.4979 11.1153 16.7597 11.2821 17.0542 11.3339C17.3487 11.3858 17.6517 11.3185 17.8967 11.147C18.2574 10.8979 18.6865 10.7669 19.1248 10.772C20.156 10.772 20.9998 11.447 20.9998 12.272V12.4032C20.4103 12.1379 19.7712 12.0005 19.1248 12.0001C16.8467 12.0001 14.9998 13.6407 14.9998 15.6564C14.9998 17.672 16.8467 19.3126 19.1248 19.3126C19.8847 19.3133 20.6325 19.1231 21.2998 18.7595C21.4042 18.8745 21.5316 18.9665 21.6737 19.0294C21.8157 19.0924 21.9694 19.125 22.1248 19.1251C22.4231 19.1251 22.7093 19.0066 22.9203 18.7956C23.1313 18.5846 23.2498 18.2985 23.2498 18.0001V12.272C23.2498 10.2001 21.4029 8.52198 19.1248 8.52198ZM19.1248 17.0626C18.1123 17.0626 17.2498 16.4157 17.2498 15.6564C17.2498 14.897 18.1123 14.2501 19.1248 14.2501C20.1373 14.2501 20.9998 14.897 20.9998 15.6564C20.9998 16.4157 20.1373 17.0626 19.1248 17.0626Z" fill="#212121"/>
</g>
<defs>
<clipPath id="clip0_1232_28602">
<rect width="24" height="24" fill="white"/>
</clipPath>
</defs>
</svg>
