<svg width="24" height="24" viewBox="0 0 24 24" fill="none" xmlns="http://www.w3.org/2000/svg">
<path d="M10.5 17.15L14.48 14.87C15.15 14.49 15.15 13.52 14.48 13.13L10.5 10.85C9.83 10.47 9 10.96 9 11.72V16.27C9 17.04 9.83 17.53 10.5 17.15ZM21 5.99995H13.41L16.35 3.05995C16.55 2.85995 16.55 2.54995 16.35 2.34995C16.15 2.14995 15.84 2.14995 15.64 2.34995L12 5.98995L8.36 2.34995C8.16 2.14995 7.85 2.14995 7.65 2.34995C7.45 2.54995 7.45 2.85995 7.65 3.05995L10.59 5.99995H3C2.46957 5.99995 1.96086 6.21066 1.58579 6.58574C1.21071 6.96081 1 7.46952 1 7.99995V20C1 21.1 1.9 22 3 22H21C22.1 22 23 21.1 23 20V7.99995C23 7.46952 22.7893 6.96081 22.4142 6.58574C22.0391 6.21066 21.5304 5.99995 21 5.99995ZM20 20H4C3.45 20 3 19.5499 3 19V8.99995C3 8.44995 3.45 7.99995 4 7.99995H20C20.55 7.99995 21 8.44995 21 8.99995V19C21 19.5499 20.55 20 20 20Z" fill="#212121"/>
</svg>
