<svg width="24" height="24" viewBox="0 0 24 24" fill="none" xmlns="http://www.w3.org/2000/svg">
<path d="M13 14.8C13 14.3582 12.6418 14 12.2 14H11C9.3596 13.9994 7.75023 14.4472 6.34587 15.2949C5.17356 16.0026 4.18133 16.9666 3.44125 18.1103C3.31345 18.3079 2.99988 18.2353 3 18C3 12.7463 7.05113 8.43903 12.2001 8.03156C12.6406 7.99671 13 7.64187 13 7.20004V4.66454C13 3.99373 13.7759 3.6208 14.2998 4.03984L22.2191 10.3753C22.6195 10.6956 22.6195 11.3045 22.2191 11.6247L14.2998 17.9602C13.7759 18.3793 13 18.0063 13 17.3355V14.8Z" fill="#212121"/>
</svg>
