<svg width="25" height="25" viewBox="0 0 25 25" fill="none" xmlns="http://www.w3.org/2000/svg">
<g clip-path="url(#clip0_1276_3395)">
<path d="M17.2729 0.262011C17.2219 0.205011 15.3844 0.284511 13.7854 2.02001C12.1864 3.75401 12.4324 5.74301 12.4684 5.79401C12.5044 5.84501 14.7484 5.92451 16.1809 3.90701C17.6134 1.88951 17.3239 0.320511 17.2729 0.262011ZM22.2439 17.8615C22.1719 17.7175 18.7564 16.0105 19.0744 12.7285C19.3924 9.44501 21.5869 8.54501 21.6214 8.44751C21.6559 8.35001 20.7259 7.26251 19.7404 6.71201C19.0168 6.32389 18.216 6.10152 17.3959 6.06101C17.2339 6.05651 16.6714 5.91851 15.5149 6.23501C14.7529 6.44351 13.0354 7.11851 12.5629 7.14551C12.0889 7.17251 10.6789 6.36251 9.16239 6.14801C8.19189 5.96051 7.16289 6.34451 6.42639 6.64001C5.69139 6.93401 4.29339 7.77101 3.31539 9.99551C2.33739 12.2185 2.84889 15.7405 3.21489 16.8355C3.58089 17.929 4.15239 19.7215 5.12439 21.0295C5.98839 22.5055 7.13439 23.53 7.61289 23.878C8.09139 24.226 9.44139 24.457 10.3774 23.9785C11.1304 23.5165 12.4894 23.251 13.0264 23.2705C13.5619 23.29 14.6179 23.5015 15.6994 24.079C16.5559 24.3745 17.3659 24.2515 18.1774 23.9215C18.9889 23.59 20.1634 22.333 21.5344 19.7845C22.0549 18.5995 22.2919 17.959 22.2439 17.8615Z" fill="black"/>
<path d="M17.2729 0.262011C17.2219 0.205011 15.3844 0.284511 13.7854 2.02001C12.1864 3.75401 12.4324 5.74301 12.4684 5.79401C12.5044 5.84501 14.7484 5.92451 16.1809 3.90701C17.6134 1.88951 17.3239 0.320511 17.2729 0.262011ZM22.2439 17.8615C22.1719 17.7175 18.7564 16.0105 19.0744 12.7285C19.3924 9.44501 21.5869 8.54501 21.6214 8.44751C21.6559 8.35001 20.7259 7.26251 19.7404 6.71201C19.0168 6.32389 18.216 6.10152 17.3959 6.06101C17.2339 6.05651 16.6714 5.91851 15.5149 6.23501C14.7529 6.44351 13.0354 7.11851 12.5629 7.14551C12.0889 7.17251 10.6789 6.36251 9.16239 6.14801C8.19189 5.96051 7.16289 6.34451 6.42639 6.64001C5.69139 6.93401 4.29339 7.77101 3.31539 9.99551C2.33739 12.2185 2.84889 15.7405 3.21489 16.8355C3.58089 17.929 4.15239 19.7215 5.12439 21.0295C5.98839 22.5055 7.13439 23.53 7.61289 23.878C8.09139 24.226 9.44139 24.457 10.3774 23.9785C11.1304 23.5165 12.4894 23.251 13.0264 23.2705C13.5619 23.29 14.6179 23.5015 15.6994 24.079C16.5559 24.3745 17.3659 24.2515 18.1774 23.9215C18.9889 23.59 20.1634 22.333 21.5344 19.7845C22.0549 18.5995 22.2919 17.959 22.2439 17.8615Z" fill="black"/>
</g>
<defs>
<clipPath id="clip0_1276_3395">
<rect width="24" height="24" fill="white" transform="translate(0.5 0.25)"/>
</clipPath>
</defs>
</svg>
